<?xml version="1.0" encoding="utf-8"?>
<!-- Generator: Adobe Illustrator 25.2.3, SVG Export Plug-In . SVG Version: 6.00 Build 0)  -->
<svg version="1.1" id="Capa_1" xmlns="http://www.w3.org/2000/svg" xmlns:xlink="http://www.w3.org/1999/xlink" x="0px" y="0px"
	 viewBox="0 0 491.1 491.1" style="enable-background:new 0 0 491.1 491.1;" xml:space="preserve">
<style type="text/css">
	.st0{fill:#FFFFFF;}
</style>
<g>
	<g>
		<path class="st0" d="M475.6,177.4l-154.4-13L261.1,21.6c-2.5-6.2-8.8-10.5-15.6-10.5s-13,4-15.6,10.5l-60.1,142.8l-154.4,13
			C8.7,178,2.7,182.5,0.8,189s0,13.6,5.1,18.1l117,101.2L87.7,459c-1.4,6.8,1.1,13.6,6.5,17.6c5.7,4,13,4.2,18.7,0.9l132.6-80.2
			l132.6,80.2c2.8,1.7,5.7,2.5,8.8,2.5c3.4,0,7.1-1.1,9.9-3.1c5.7-4,8.2-11,6.5-17.6l-35.1-150.7l117-101.1
			c5.1-4.5,7.1-11.6,5.1-18.1C488.4,182.5,482.4,178,475.6,177.4z M338.2,289.6c-4.8,4.2-6.8,10.5-5.4,16.7l28.3,121.5l-106.8-64.6
			c-2.8-1.7-5.7-2.5-8.8-2.5c-3.1,0-6.2,0.9-8.8,2.5L130,427.9l28.3-121.5c1.4-6.2-0.6-12.5-5.4-16.7L58.6,208l124.4-10.5
			c6.2-0.6,11.9-4.5,14.2-10.2L245.6,72L294,187c2.5,5.9,7.9,9.9,14.2,10.2l124.4,10.5L338.2,289.6z"/>
	</g>
</g>
</svg>
